# xmcd
#
# Track frame offsets:
#	175
#	12177
#	21712
#	33445
#	48512
#	62112
#	75287
#	88330
#	100587
#	118400
#	127600
#	150887
#	162887
#	175750
#	194725
#	214250
#	228412
#	246650
#	257475
#	272375
#	292875
#
# Disc length: 4213 seconds
#
# Revision: 3
# Processed by: cddbd v1.5.1PL2 Copyright (c) Steve Scherf et al.
# Submitted via: audiograbber 1.83.01
#
DISCID=1b107315
DTITLE=Tony Sheridan - Best
DYEAR=1900
DGENRE=Rock and Roll
TTITLE0=What'd I Say
TTITLE1=Sweet Georgia Brown
TTITLE2=Let's Dance
TTITLE3=When The Saints Go Marching In
TTITLE4=Why
TTITLE5=If You Love Me, Baby
TTITLE6=Ruby Baby
TTITLE7=My Bonnie
TTITLE8=Nobody's Child
TTITLE9=Ready Teddy
TTITLE10=Ya Ya (Parts 1+2)
TTITLE11=Kansas City
TTITLE12=Take Out Some Insurance
TTITLE13=From A Whisper To A Shout
TTITLE14=Get Out Of My Life Woman
TTITLE15=On And On
TTITLE16=Skinny Minnie
TTITLE17=My Bonnie (II)
TTITLE18=Money Hone
TTITLE19=Winter
TTITLE20=What'd I Say
EXTD=
EXTT0=
EXTT1=
EXTT2=
EXTT3=
EXTT4=
EXTT5=
EXTT6=
EXTT7=
EXTT8=
EXTT9=
EXTT10=
EXTT11=
EXTT12=
EXTT13=
EXTT14=
EXTT15=
EXTT16=
EXTT17=
EXTT18=
EXTT19=
EXTT20=
PLAYORDER=
